# xmcd CD database file
#
# Track frame offsets:
#	150
#	31393
#	53706
#	68676
#	93542
#	119722
#	145086
#	164861
#	185370
#	218881
#	250025
#
# Disc length: 3675 seconds
#
# Revision: 0
# Processed by: cddbd v1.4PL0 Copyright (c) Steve Scherf et al.
# Submitted via: Feurio! 1.66 - http://www.feurio.com
#
DISCID=a20e590b
DTITLE=Dixie Chicks - 2003-07-06 American Airlines Center, Dallas, Texas, Disc 
DTITLE=two
DYEAR=1900
DGENRE=country
TTITLE0=A Home
TTITLE1=Truth No. 2
TTITLE2=If I Fall You're Going Down With Me
TTITLE3=Mississippi
TTITLE4=Cowboy Take Me Away
TTITLE5=Godspeed (Sweet Dreams)
TTITLE6=Landslide
TTITLE7=Ready To Run
TTITLE8=Wide Open Spaces
TTITLE9=Top Of The World
TTITLE10=Sin Wagon
EXTD=
EXTT0=
EXTT1=
EXTT2=
EXTT3=
EXTT4=
EXTT5=
EXTT6=
EXTT7=
EXTT8=
EXTT9=
EXTT10=
PLAYORDER=
